<svg xmlns="http://www.w3.org/2000/svg" width="14.7" height="16.2" viewBox="0 0 14.7 16.2">
  <g id="Icon_feather-share-2" data-name="Icon feather-share-2" transform="translate(-3.9 -2.4)">
    <path id="Path_1487" data-name="Path 1487" d="M27,5.25A2.25,2.25,0,1,1,24.75,3,2.25,2.25,0,0,1,27,5.25Z" transform="translate(-9)" fill="none" stroke="#000" stroke-linecap="round" stroke-linejoin="round" stroke-width="1.2"/>
    <path id="Path_1488" data-name="Path 1488" d="M9,15.75A2.25,2.25,0,1,1,6.75,13.5,2.25,2.25,0,0,1,9,15.75Z" transform="translate(0 -5.25)" fill="none" stroke="#000" stroke-linecap="round" stroke-linejoin="round" stroke-width="1.2"/>
    <path id="Path_1489" data-name="Path 1489" d="M27,26.25A2.25,2.25,0,1,1,24.75,24,2.25,2.25,0,0,1,27,26.25Z" transform="translate(-9 -10.5)" fill="none" stroke="#000" stroke-linecap="round" stroke-linejoin="round" stroke-width="1.2"/>
    <path id="Path_1490" data-name="Path 1490" d="M12.885,20.265l5.122,2.985" transform="translate(-4.193 -8.632)" fill="none" stroke="#000" stroke-linecap="round" stroke-linejoin="round" stroke-width="1.2"/>
    <path id="Path_1491" data-name="Path 1491" d="M18,9.765,12.885,12.75" transform="translate(-4.193 -3.382)" fill="none" stroke="#000" stroke-linecap="round" stroke-linejoin="round" stroke-width="1.2"/>
  </g>
</svg>
